<?xml version="1.0" encoding="UTF-8"?>
<!DOCTYPE svg PUBLIC "-//W3C//DTD SVG 1.1//EN" "http://www.w3.org/Graphics/SVG/1.1/DTD/svg11.dtd">
<!-- Creator: CorelDRAW -->
<svg xmlns="http://www.w3.org/2000/svg" xml:space="preserve" width="2593px" height="500px" version="1.1" style="shape-rendering:geometricPrecision; text-rendering:geometricPrecision; image-rendering:optimizeQuality; fill-rule:evenodd; clip-rule:evenodd"
viewBox="0 0 2783.76 536.62"
 xmlns:xlink="http://www.w3.org/1999/xlink"
 xmlns:xodm="http://www.corel.com/coreldraw/odm/2003">
 <defs>
  <style type="text/css">
   <![CDATA[
    .fil0 {fill:#FEFDFD}
    .fil1 {fill:#FEFEFD}
   ]]>
  </style>
 </defs>
 <g id="Слой_x0020_1">
  <metadata id="CorelCorpID_0Corel-Layer"/>
  <g id="_105553211258080">
   <path class="fil0" d="M906.48 110.34c10.05,16.74 62.1,186.49 61.87,207.75l-126.58 0.56c5.09,-26.94 55.12,-194.15 64.71,-208.31zm-177.84 412.53l7.37 2.71c0.87,0.16 1.85,0.37 2.84,0.5l111.36 -3.21c-19.96,-11.41 -69.54,1.71 -44.78,-84.56l29.29 -98.97c5.89,-14.69 -4.44,-11.22 48.73,-11.29 108.53,-0.14 86.17,-13.71 106.33,52.32 8.73,28.59 31.37,90.27 23.02,117.32 -7.31,23.69 -23.97,14.02 -45.45,25.18 9.87,8.22 65.49,3.36 90.43,3.37 12.47,0.01 172.55,3.49 182.97,-3.08 -33.38,-17.27 -61.13,-5.44 -61.07,-102.26l-0.01 -368.4c10.34,12.24 94.03,301.55 109.98,356.91l28.17 90.26c8.96,29.18 4.36,21.5 12.96,26.54 9.2,-4.92 8.56,-12.04 11.92,-24.32l131.6 -444.79c10.26,38.15 5.27,315.29 5.16,383.54 -0.15,62.19 -8.59,59.15 -53.44,82.23 10.45,6.96 144.98,3.42 158.03,3.42 11.72,-0.03 11.29,2.01 18.57,-3.42 -38.69,-21.52 -54.3,-5.23 -54.56,-98.68l-0.07 -332.21c0.02,-22.46 -1.25,-42.95 11.5,-57.45 14.07,-16.01 29.57,-14.25 43.06,-24.77l-125.34 -1.73 -118.3 399.65 -115.68 -398.99 -135.07 -0.34c39.65,34.18 62.77,-17.62 62.74,123.11 -0.02,68.9 3.71,286.04 -5.49,327.97 -5.73,26.16 -22.82,64.24 -56.27,45.22 -21.54,-12.25 -27.19,-45.98 -35.79,-76.29 -8.52,-30.04 -17.12,-56.67 -26.3,-85.53l-79.59 -255.91c-5.47,-18.47 -17.05,-76.51 -31.38,-83.77 -8.22,3.18 -5.99,-3.67 -16.69,26.11 -44.11,122.83 -96.45,350.65 -141.01,451.05 -17.27,38.91 -28.92,24.02 -49.74,42.56z"/>
   <path class="fil1" d="M2546.42 108.98c8.31,9.97 64.56,194.6 63.96,209.35l-124.95 0.59 60.99 -209.94zm-410.89 148.57l-0.55 -238.61c88.51,-8.87 128.9,33.28 126.81,119.2 -1.75,71.82 -43.87,140.75 -126.26,119.41zm99.14 8.76c37.35,-17.03 70.49,-21.96 92.47,-79.24 18.56,-48.35 10.83,-106.08 -17.82,-136.31 -28.68,-30.27 -72.6,-43 -126.53,-42.92 -28.89,0.05 -154.93,-4.23 -170.92,1.92 0.67,0.44 1.82,0.12 2.16,1.08l9.13 3.89c46.84,18.64 42.83,44.13 43.02,93.66l0.04 312.52c-0.39,57.06 -1.8,90 -55.77,100.83l171.51 3.87c0.81,-0.18 1.77,-0.56 2.46,-0.76l4.4 -1.98c-37.02,-22.68 -53.1,-3.88 -53.99,-98.67 -0.37,-39.38 -4.19,-117.26 0.72,-152.37 50.5,-1.79 58.51,34.97 74.53,75.64 14.32,36.38 30.43,72.12 46,108.59 17.8,41.69 30.36,68.82 84.35,69.98 11.08,0.24 144.06,3.89 154.37,-3.17 -20.11,-11.4 -32.95,-2.51 -46.13,-22.55 -21.06,-32.02 18.81,-112.18 31.88,-172.91l133.02 0.75c11.7,17.58 27.36,82 34.42,107.67 4.48,16.31 11.81,44.28 6.26,62.03 -6.69,21.39 -25.8,17.26 -46.42,24.84 8.98,6.9 167.3,6.32 175.93,0.17 -12.5,-8.36 -24.31,-8.52 -35.57,-19.5 -23.6,-23.03 -37.71,-91.46 -47.61,-123.43 -18.26,-58.97 -35.52,-115.46 -53.62,-173.35 -18.06,-57.78 -36.34,-114.83 -53.59,-173.36 -17.92,-60.74 -26.71,-21.05 -38.29,13.42 -34.36,102.25 -101.35,366.15 -133.86,435.3 -14.33,30.48 -45.76,37.5 -66.38,10.15 -13.37,-17.74 -57.28,-125.15 -72.83,-157.53 -16.39,-34.1 -19.95,-47.13 -43.56,-65.18 -0.5,-0.39 -1.49,-1.21 -1.9,-1.53 -0.4,-0.31 -1.3,-0.98 -1.88,-1.55z"/>
   <path class="fil1" d="M1936.51 322.23c-4.83,68.58 -24.33,169.57 -92.14,194.57 -23.75,8.76 -57.66,8.32 -79.41,-3.8 -109.36,-60.94 -99.59,-358.13 -39.65,-450.72 61.89,-95.6 234.94,-77.18 211.2,259.95zm-160.83 -316.62c-120.9,23.74 -184.41,152.28 -171.26,299.79 11.25,126.37 95.42,253.71 238.3,226.15 134.33,-25.92 182.1,-170.94 171.89,-298.13 -10.41,-129.53 -93.36,-256.39 -238.93,-227.81z"/>
   <path class="fil0" d="M377.07 493.61c-0.59,-38.53 -2.82,-76.04 -2.47,-115.52 0.71,-79.66 19.85,-54.55 44.07,-74.58 -23.5,-2.63 -56.65,-0.75 -81.23,-0.72l-81.72 3.8c24.38,8.85 44.08,10.49 50.19,37.02 5.02,21.85 3.34,66.61 3.01,90.45 -0.49,34.83 1.26,53.82 -21.23,71.94 -17.13,13.8 -44.41,20.14 -72,20.09 -103.18,-0.2 -132.58,-127.96 -136.34,-233.46 -10.58,-297.31 157.55,-328.09 230.07,-235.11 27.26,34.94 36,74.23 46.09,114.96 4.36,17.62 -0.96,9.98 8.25,14.02 4.54,-8.73 4.52,-162.13 0,-172.82 -20.6,8.62 12.93,35.28 -49.58,6.12 -141.01,-65.77 -314.5,35.78 -314.18,253.09 0.25,165.91 97.71,277.88 247.99,262.28 53.69,-5.57 86.33,-29.04 129.08,-41.56z"/>
   <path class="fil0" d="M410.61 9.76c15.62,10.5 34.83,8.63 46.54,28.26 14.99,25.15 8.27,193.28 8.28,228.29 0.01,34.74 6.11,200.4 -7.51,225.64 -12.74,23.6 -25.06,18.35 -47.69,30.92 3.88,2.81 -1.02,1.18 6.88,2.74l308.82 0.3c0.67,-25.62 5.84,-56.42 9.22,-82.08l8.61 -61.34c2.23,-15.32 1.32,-15.98 -2.95,-21.02 -24.3,70.5 -18.23,109.13 -87.51,138.46 -22.76,9.64 -71.82,19.56 -97.26,8.32 -28.05,-12.39 -22.36,-62.31 -22.34,-93.92 0.05,-102.28 -2.78,-242.68 0.87,-342.23 2.11,-57.72 21.98,-42.12 52.1,-62.34 -9.89,-4.38 -165.91,-4.46 -176.06,0z"/>
  </g>
 </g>
</svg>
