<?xml version="1.0" encoding="UTF-8"?>
<!DOCTYPE svg PUBLIC "-//W3C//DTD SVG 1.1//EN" "http://www.w3.org/Graphics/SVG/1.1/DTD/svg11.dtd">
<!-- Creator: CorelDRAW -->
<svg xmlns="http://www.w3.org/2000/svg" xml:space="preserve" width="2579px" height="500px" version="1.1" style="shape-rendering:geometricPrecision; text-rendering:geometricPrecision; image-rendering:optimizeQuality; fill-rule:evenodd; clip-rule:evenodd"
viewBox="0 0 2661.97 516.27"
 xmlns:xlink="http://www.w3.org/1999/xlink"
 xmlns:xodm="http://www.corel.com/coreldraw/odm/2003">
 <defs>
  <style type="text/css">
   <![CDATA[
    .fil0 {fill:#0D0D0D}
   ]]>
  </style>
 </defs>
 <g id="Слой_x0020_1">
  <metadata id="CorelCorpID_0Corel-Layer"/>
  <g id="_105553210779488">
   <path class="fil0" d="M867.68 103.88l60.63 204.18 -123.73 0.17 63.1 -204.35zm189.5 -94.11c20.71,22.51 59.7,-9.75 59.73,94.29l-0.01 291.98c0,30.32 -1.25,67.98 -17.51,86.03 -22.69,25.2 -44.5,7.32 -55.66,-19.02l-123.53 -391.22c-4.24,-14.05 -7.43,-24.3 -12,-38.25 -1.92,-5.88 -3.46,-13.38 -5.55,-19.54 -4.31,-12.66 -4.04,-10.92 -12.43,-13.8 -7.03,16.68 -15.25,46.26 -21.24,66.13l-101.2 332.27c-16.67,52.09 -23.29,84.96 -68.56,102.82l4.57 2.61c11.25,4.18 92.88,2.57 107.62,0.86 -17.89,-13.19 -59.89,-5.18 -39.96,-84.02 4.61,-18.19 10.7,-36.21 15.63,-53.44 18.42,-64.3 -10.26,-49.83 144.45,-49.76 4.11,29.97 21.64,75.73 30.59,107.57 21.76,77.4 -11.64,62.03 -38.4,79.65 38.99,3.84 219.66,1.11 265.98,1.11 -16.92,-24.99 -60.93,18.29 -60.94,-110 -0.01,-116.87 1.38,-222 -3.16,-339.23 13.11,10.06 16.22,36.61 21.36,54.95l102.66 346.32c3.2,10.95 5.72,19.03 8.69,28.93 3.99,13.32 2.13,14.86 11.58,20.74 10.43,-9.18 31.41,-93.26 37.26,-113.14l68.93 -229.45c11.43,-34.49 21.35,-79.36 35.79,-110.24l0.28 366.24c0,79.15 -28.02,67.53 -58.21,84.71l175 0.16c-4.29,-5.13 0.55,-1.06 -5.64,-4.35 -3.94,-2.09 -3.07,-1.32 -7.03,-2.59 -30.54,-9.85 -41.18,-27.01 -41.22,-68.51l-0.01 -348.5c0,-72.38 40.42,-60.35 53.35,-72.36l-119.77 0.14 -109.43 381.39c-5.75,-8.98 -12.38,-36.43 -15.95,-48.38 -27.12,-90.98 -80,-257.53 -97.63,-332.62l-128.43 -0.48z"/>
   <path class="fil0" d="M2435.36 105.18l59.95 202.9 -123.85 0.41 63.9 -203.31zm-398.37 -85.94c44.97,0.31 71.54,1.44 94.67,27.84 19.23,21.95 27.44,53.71 27.65,91.51 0.61,109.11 -55.91,111.25 -122.29,113.77l-0.01 -211.1 -0.02 -22.02zm-62.85 -9.18c-15.14,-0.04 -41.02,-4.23 -52.45,2.52 24.56,8.46 32.95,3.28 44.89,26.86 14.11,27.88 8.5,175.13 8.51,224.74 0.01,37.38 7.44,186.33 -11.59,215.41 -9.95,15.22 -40.83,25.06 -40.88,24.98 -0.29,-0.58 -1.21,0.82 -1.78,1.31l160.05 0.15c14.71,0 8.59,-0.67 12.55,-3.75 -23.97,-5.18 -33.18,-7.87 -44.31,-24.17 -19.46,-28.5 -11.81,-183.82 -12.24,-217.73 48.83,2.59 45.62,1.37 75.18,73.04 82.22,199.35 59.54,171.05 232.58,172.64l26.76 -1.39c0.52,-0.13 1.77,-0.02 2.13,-0.89 0.35,-0.85 1.42,-0.54 2.02,-0.99 -20.12,-10.24 -31.34,-5.34 -40.47,-28.08 -10.65,-26.49 10.02,-79.78 19.06,-110.11 3.47,-11.64 9.32,-41.72 18.73,-46.95l125.61 -0.05c9.27,35.37 21.05,71.27 31.25,106.69 4.75,16.48 12.49,38.47 4.77,54.82 -7.58,16.05 -24.41,18.13 -32.37,21l159.83 5.93c-9.27,-13.64 -14.49,-3.03 -31.72,-15.9 -9.7,-7.25 -13.82,-16.73 -18.27,-25.6 -9.69,-19.33 -93.22,-292.82 -105.79,-333.69 -6.44,-20.94 -33.57,-122.29 -45.4,-130.46 -11.32,9.39 -56.72,173.03 -65.96,201.06 -21.65,65.71 -41.42,134.47 -62.72,200.9 -9.55,29.78 -22.58,76.05 -44.56,87.1 -12.56,6.32 -31.58,-12.26 -38.74,-19.58 -12.87,-13.16 -16.53,-24.49 -25.03,-40.94 -37.17,-71.96 -45.11,-134.27 -89.81,-174.01 57.94,-11.7 110.99,-70.16 96.17,-146.29 -22.91,-117.7 -154.41,-98.28 -256,-98.57z"/>
   <path class="fil0" d="M1849.91 295.58c-4.45,61.79 -11.19,103.24 -35.42,151.16 -46.55,92.08 -222.86,119.66 -210.7,-229.78 3.24,-93.41 54.5,-244.91 156.49,-200.27 73.31,32.08 97.04,176.04 89.63,278.89zm-320.83 -18.84c4,126.45 81.97,252.8 215.79,238.41 116.89,-12.58 186.12,-137.14 177.85,-274.95 -20.54,-342.41 -404.45,-305.31 -393.64,36.54z"/>
   <path class="fil0" d="M238.72 295.58c10.5,6.82 40.65,0.46 51.55,38.76 6.53,22.99 12.44,126.55 -17.79,152.72 -59.22,51.26 -194.59,19.91 -198.11,-207.18 -4.01,-259.08 127.9,-331.83 218.89,-224.77 50.42,59.34 42.55,108.84 54.54,120.79 9,-14.09 3.32,-130.29 3.18,-156.84 -16.01,6.26 -7.99,18.4 -27.84,16.34 -10.64,-1.1 -36.33,-24.21 -90.21,-32.84 -286.95,-45.93 -333.97,541.34 1.79,512.61 31.21,-2.67 96.51,-25.58 120.62,-43.77 1.25,-38.32 -1.13,-77.7 0.55,-115.76 2.88,-65.49 38.82,-45.98 48.56,-63.29 -28.53,0.63 -56.35,0.96 -84.91,0.98 -12.82,0.01 -71.19,-4.28 -80.82,2.25z"/>
   <path class="fil0" d="M712 347.29c-9.32,11.85 -6.35,39.23 -30.12,81.39 -31.94,56.65 -107.88,79.88 -149.11,58.74 -26.85,-13.77 -26.53,-49.91 -26.52,-85.1 0.02,-74.3 0.07,-148.61 -0.01,-222.91 -0.06,-53.79 -12.86,-147.73 34.03,-162.11 13.02,-3.99 10.78,-0.55 18.1,-7.6 -28.33,0.2 -56.64,0.4 -84.98,0.37l-74.62 0.33c-8.08,1.6 -3.17,0.14 -6.24,2.61 25.24,9.82 35.71,3.69 45.55,29.05 11.3,29.11 6.53,182.16 6.51,218.98 -0.03,42.29 6.05,187.43 -9.36,216.01 -11.6,21.53 -23.31,19.37 -33.79,22.78l-8.64 4.58c-0.33,-0.6 -1.28,1.01 -1.8,1.62l299.15 0.02c2.28,-24.02 28.32,-147.49 21.85,-158.76z"/>
  </g>
 </g>
</svg>
