<?xml version="1.0" encoding="UTF-8"?>
<!DOCTYPE svg PUBLIC "-//W3C//DTD SVG 1.1//EN" "http://www.w3.org/Graphics/SVG/1.1/DTD/svg11.dtd">
<!-- Creator: CorelDRAW -->
<svg xmlns="http://www.w3.org/2000/svg" xml:space="preserve" width="78px" height="64px" version="1.1" style="shape-rendering:geometricPrecision; text-rendering:geometricPrecision; image-rendering:optimizeQuality; fill-rule:evenodd; clip-rule:evenodd"
viewBox="0 0 79.17 65.29"
 xmlns:xlink="http://www.w3.org/1999/xlink"
 xmlns:xodm="http://www.corel.com/coreldraw/odm/2003">
 <defs>
  <style type="text/css">
   <![CDATA[
    .fil2 {fill:#290713}
    .fil0 {fill:#6F1535}
    .fil1 {fill:#701636}
   ]]>
  </style>
 </defs>
 <g id="Слой_x0020_1">
  <metadata id="CorelCorpID_0Corel-Layer"/>
  <g id="_105553209952992">
   <path class="fil0" d="M35.89 58.22c0.26,0.88 0.15,4.9 0.06,6.02l9.24 -0.05 -0.03 -33.1 -19.23 0c-0.15,0.53 -0.15,10.08 0,10.74l5.91 -0.01c0.57,0 1.88,-0.14 1.55,0.15 0,3.1 -0.98,6.96 -3.06,8.96 -0.37,0.35 -1.25,0.99 -1.73,1.23 -2.41,1.2 -6,0.99 -8.08,-0.88 -4.58,-4.1 -4.97,-12.05 -4.97,-17.75 0,-5.53 0.42,-20.99 9.16,-20.93 0.87,0 1.92,0.22 2.51,0.46 0.55,0.23 1.47,0.85 1.86,1.24 1.9,1.86 3.07,5.31 3.36,8.77l12.48 0c0,-3.37 -0.89,-8.74 -2.14,-11.54 -3.52,-7.88 -9.92,-11.53 -18.78,-11.53 -3.54,0 -6.71,0.67 -9.08,1.86 -3.06,1.55 -3.99,2.23 -6.41,4.65 -1.82,1.82 -3.35,4.06 -4.57,6.49 -3.77,7.49 -4.65,20.37 -3.42,28.79 0.95,6.56 2.74,11.74 6.05,15.95 0.91,1.17 2.25,2.51 3.39,3.38 0.27,0.21 0.53,0.4 0.82,0.61 1.49,1.1 3.67,2.17 5.5,2.71 1.23,0.36 3.21,0.84 4.74,0.85 1.96,0 3.51,0.04 5.19,-0.3 3.54,-0.71 6.4,-2.41 8.54,-5.25l0.86 -1.29c0.28,-0.42 0.04,-0.25 0.28,-0.23z"/>
   <path class="fil1" d="M79.17 64.33l-0.06 -12.13c-0.19,2.4 0.29,10.56 -0.11,11.87 -0.01,0.04 -0.03,0.08 -0.05,0.11l-0.01 -11.88c-1.08,0.15 -15.86,0.14 -16.48,-0.02 -0.25,-1.07 -0.06,-5.01 -0.07,-6.38 -0.07,-12.76 0.15,-25.9 -0.01,-38.53 -0.03,-2.04 -0.1,-4.49 0,-6.5l-15.05 -0.04 0.05 63.43c1.78,-0.18 20.26,-0.01 23.82,-0.03l7.97 0.1z"/>
   <path class="fil2" d="M79.17 64.33l-7.97 -0.1c-3.56,0.02 -22.04,-0.15 -23.82,0.03l-0.05 -63.43 15.05 0.04c-0.1,2.01 -0.03,4.46 0,6.5 0.16,12.63 -0.06,25.77 0.01,38.53 0.01,1.37 -0.18,5.31 0.07,6.38 0.62,0.16 15.4,0.17 16.48,0.02l0.01 11.88c0.02,-0.03 0.04,-0.07 0.05,-0.11 0.4,-1.31 -0.08,-9.47 0.11,-11.87l-16.59 0 0 -51.49 -15.34 0 0 63.62 -0.35 0 32.34 0z"/>
   <path class="fil2" d="M33.39 41.97c0.33,-0.29 -0.98,-0.15 -1.55,-0.15l-5.91 0.01c-0.15,-0.66 -0.15,-10.21 0,-10.74l19.23 0 0.03 33.1 -9.24 0.05c0.09,-1.12 0.2,-5.14 -0.06,-6.02l0 6.11 9.39 0c0,-0.72 0.12,-1.26 0.12,-2.14l-0.02 -11.73c-0.04,-3.77 0.2,-8.89 0,-12.27 -0.02,-0.42 -0.03,-0.1 -0.01,-0.44l-0.09 -6.83 -19.62 0 0 11.05 7.73 0z"/>
  </g>
 </g>
</svg>
